<svg xmlns="http://www.w3.org/2000/svg" viewBox="0 0 40 38" fill="#000"><path d="M17.9162 16.6294L17.8813 25.3389C17.8813 25.5197 17.6873 25.6336 17.5322 25.5432L8.54886 20.3497C8.34328 20.2319 8.08341 20.3812 8.08341 20.6208V30.8821C8.08341 31.1217 7.82741 31.2749 7.61795 31.1531L0.314182 26.9221C0.120242 26.8121 0 26.6039 0 26.3761V6.42712C0 6.18748 0.255993 6.03427 0.465448 6.15605L17.5981 16.0834C17.7998 16.1934 17.9162 16.4016 17.9162 16.6294Z"/><path d="M10.3582 23.2476L17.6115 27.4816C17.8031 27.591 17.9181 27.798 17.9181 28.0245V36.5434C17.9181 36.7817 17.6652 36.934 17.4583 36.813L10.205 32.5789C10.0134 32.4656 9.89844 32.2625 9.89844 32.036V23.521C9.89844 23.2788 10.1513 23.1265 10.3582 23.2476Z"/><path d="M17.9797 5.05605C17.9797 4.99202 17.9453 4.93291 17.8897 4.90121L9.43749 0.0849289C9.24279 -0.0276545 9.00916 -0.0276539 8.81835 0.0810474L1.52489 4.24275C1.31462 4.3631 1.31462 4.66203 1.52489 4.78238L17.7131 14.0199C17.8319 14.0877 17.9797 14.0019 17.9797 13.8651V5.05605Z"/><path d="M25.0508 0.291992C25.2378 0.205994 25.4514 0.197429 25.6445 0.268555L25.7393 0.310547L34.5625 4.97168C34.8174 5.1065 34.9766 5.37178 34.9766 5.66016V10.2188L39.3438 12.7148C39.5861 12.8533 39.7362 13.1106 39.7363 13.3896V23.2188C39.7363 23.4814 39.6035 23.7264 39.3838 23.8701L35.2949 26.5439L34.9814 31.084C34.9639 31.3368 34.8244 31.5653 34.6074 31.6963L25.7754 37.0293C25.5163 37.1857 25.1896 37.1777 24.9385 37.0088L20.9463 34.3203C20.7317 34.1757 20.6036 33.9336 20.6035 33.6748V3.52539C20.6037 3.25888 20.7397 3.01076 20.9648 2.86816L24.96 0.34082L25.0508 0.291992ZM21.8027 3.75684V16.9697L23.9688 15.4873C23.9743 14.9508 24.4114 14.5176 24.9492 14.5176C25.4904 14.5177 25.9287 14.9568 25.9287 15.498C25.9285 16.0392 25.4903 16.4774 24.9492 16.4775C24.8617 16.4775 24.777 16.4649 24.6963 16.4434L21.8027 18.4238V33.4492L25.3857 35.8623L28.7832 33.8096L26.5762 32.4736C26.4841 32.5023 26.3866 32.5185 26.2852 32.5186C25.7439 32.5186 25.3049 32.0803 25.3047 31.5391C25.3047 30.9977 25.7438 30.5586 26.2852 30.5586C26.8084 30.5587 27.2339 30.969 27.2617 31.4854L29.9434 33.1094L33.7988 30.7822L34.0928 26.5225L31.4551 24.8555C30.9146 24.8546 30.4767 24.4176 30.4766 23.877C30.4766 23.3356 30.9157 22.8965 31.457 22.8965C31.9983 22.8966 32.4365 23.3357 32.4365 23.877C32.4365 23.935 32.4306 23.9916 32.4209 24.0469L34.709 25.4922L38.5361 22.9912V18.6465L35.9355 17.1699C35.8693 17.1841 35.8009 17.1924 35.7305 17.1924C35.1892 17.1924 34.7502 16.7541 34.75 16.2129C34.75 15.6715 35.1891 15.2324 35.7305 15.2324C36.2717 15.2326 36.71 15.6716 36.71 16.2129C36.71 16.2188 36.7091 16.2246 36.709 16.2305L38.5361 17.2666V13.6338L34.3975 11.2695L30.6406 13.7012V17.626L34.1182 19.7998C34.2543 19.7281 34.4096 19.6875 34.5742 19.6875C35.1154 19.6876 35.5537 20.1267 35.5537 20.668C35.5535 21.2091 35.1153 21.6473 34.5742 21.6475C34.1148 21.6475 33.7293 21.3318 33.623 20.9053L30.1094 18.709L25.8809 21.2773V25.3574L29.1641 27.3135C29.3129 27.2223 29.4884 27.1699 29.6758 27.1699C30.217 27.1701 30.6553 27.6091 30.6553 28.1504C30.6551 28.6915 30.2169 29.1297 29.6758 29.1299C29.2431 29.1299 28.8761 28.8498 28.7461 28.4609L25.0615 26.2656C24.826 26.1253 24.6817 25.8718 24.6816 25.5977V21.0391C24.6818 20.7673 24.8234 20.5151 25.0557 20.374L29.4404 17.7119V13.7402L25.4551 11.748C25.1917 11.6162 25.0255 11.3473 25.0254 11.0527V7.06543C24.8144 6.8857 24.6798 6.61914 24.6797 6.32031C24.6797 5.77897 25.1188 5.33984 25.6602 5.33984C26.2014 5.33999 26.6396 5.77906 26.6396 6.32031C26.6395 6.65101 26.4756 6.94267 26.2246 7.12012V10.791L30.0059 12.6816L33.7764 10.2422V5.91309L30.5605 4.21387V7.28027C30.8296 7.45503 31.0068 7.75882 31.0068 8.10352C31.0067 8.64463 30.5685 9.08286 30.0273 9.08301C29.4861 9.08301 29.047 8.64472 29.0469 8.10352C29.0469 7.79428 29.1904 7.51852 29.4141 7.33887H29.3613V3.58008L25.3945 1.48535L21.8027 3.75684Z"/></svg>