<?xml version="1.0" encoding="UTF-8"?>
<svg width="153" height="176" viewBox="0 0 153 176" xmlns="http://www.w3.org/2000/svg">
    <polygon fill="#115EF7" points="76.2003 0 0.0003 43.9397 0.0003 131.8297 76.2003 175.8297 152.4003 131.8297 152.4003 43.9397"/>
    <g transform="translate(0, -0.17)">
        <g transform="translate(75, 151)">
            <polygon fill="#EFF1F4" points="0.4649 0.0002 0.4649 24.5752 1.1999 25.0002 1.9649 24.5592 1.9649 0.0002"/>
        </g>
        <polygon fill="#EFF1F4" points="22.0254 55.9601 0.7504 43.6771 0.0004 44.1091 0.0004 44.9761 21.2754 57.2591"/>
        <polygon fill="#EFF1F4" points="131.1241 57.259 152.4001 44.976 152.4001 44.11 151.6491 43.677 130.3741 55.96"/>
        <polygon fill="#C6D6F7" points="76.9795 64.4885 76.9795 0.6195 76.2005 0.1705 75.4795 0.5855 75.4795 64.4885"/>
        <polygon fill="#C6D6F7" points="34.1504 111.4191 0.0004 131.1651 0.0004 132.0001 0.7774 132.4481 34.9004 112.7181"/>
        <polygon fill="#C6D6F7" points="118.4385 111.5607 117.6885 112.8597 151.6205 132.4507 152.4005 131.9997 152.4005 131.1687"/>
    </g>
    <g transform="translate(30, 47.83)" fill="#FFFFFF">
        <path d="M46.9502,87.0285 L46.9502,66.6105 L73.7622,51.1305 C73.9952,50.9965 74.1372,50.7485 74.1372,50.4805 L74.1432,24.7395 L90.6992,15.1825 L90.6992,61.7695 L46.9502,87.0285 Z M26.1112,75.7005 L26.1112,55.3415 L45.4502,66.6095 L45.4502,87.0285 L26.1912,75.9095 L26.1112,75.7005 Z M52.4272,11.3355 L68.9732,1.7735 L89.9492,13.8835 L73.3932,23.4405 L52.4272,11.3355 Z M91.8242,13.2345 L69.3482,0.2575 C69.1162,0.1235 68.8312,0.1235 68.5982,0.2575 L50.5522,10.6855 C50.3202,10.8185 50.1792,11.0655 50.1782,11.3325 L50.1772,11.3325 L50.1482,18.4025 L51.6482,18.4085 L51.6722,12.6315 L72.6432,24.7395 L72.6372,49.1765 L67.6902,46.3015 L66.9362,47.5985 L71.8912,50.4785 L46.2022,65.3105 L26.8562,54.0405 L31.4772,51.3725 L30.7272,50.0735 L24.9882,53.3865 L24.9872,53.3865 C24.7552,53.5205 24.6112,53.7685 24.6112,54.0375 L24.6112,75.8395 C24.6112,75.9305 24.6282,76.0215 24.6612,76.1065 L24.8862,76.6935 C24.9472,76.8545 25.0612,76.9895 25.2112,77.0755 L45.8252,88.9765 C45.9412,89.0445 46.0702,89.0775 46.2002,89.0775 C46.3302,89.0775 46.4592,89.0445 46.5752,88.9765 L91.8242,62.8515 C92.0562,62.7175 92.1992,62.4695 92.1992,62.2025 L92.1992,13.8835 C92.1992,13.6165 92.0562,13.3685 91.8242,13.2345 L91.8242,13.2345 Z"/>
        <path d="M46.9502,57.8488 L46.9502,40.4378 L66.5562,29.1178 L66.5562,46.5298 L46.9502,57.8488 Z M20.0922,43.2078 C19.8592,43.0738 19.5742,43.0738 19.3422,43.2078 C19.1092,43.3418 18.9672,43.5898 18.9672,43.8578 L18.9672,71.6698 L1.6972,61.4998 L1.6972,15.0978 L45.4502,40.4378 L45.4502,57.8488 L20.0922,43.2078 Z M21.8382,2.4328 L65.8062,27.8188 L46.2012,39.1388 L2.4372,13.7918 L21.8382,2.4328 Z M67.6812,27.1688 L22.2102,0.9158 C21.9772,0.7808 21.6902,0.7828 21.4562,0.9178 L0.5682,13.1488 C0.3392,13.2838 0.1972,13.5298 0.1972,13.7958 L0.1972,61.9288 C0.1972,62.1948 0.3382,62.4408 0.5662,62.5758 L19.3362,73.6288 C19.4532,73.6988 19.5852,73.7328 19.7172,73.7328 C19.8452,73.7328 19.9732,73.6998 20.0892,73.6338 C20.0902,73.6328 20.0902,73.6318 20.0922,73.6308 L20.0922,73.6318 L25.4922,70.5138 L24.7422,69.2148 L20.4672,71.6838 L20.4672,45.1568 L45.8252,59.7968 C46.0572,59.9318 46.3432,59.9318 46.5752,59.7968 L67.6812,47.6118 C67.9142,47.4778 68.0562,47.2298 68.0562,46.9618 L68.0562,27.8188 C68.0562,27.5508 67.9142,27.3028 67.6812,27.1688 L67.6812,27.1688 Z"/>
        <g opacity="0.6" transform="translate(0, 3)">
            <polygon points="26.0625 1.006 25.4535 0.654 0.9475 14.803 0.9475 16.073 26.3085 1.432"/>
            <polygon points="29.4903 2.9855 28.8813 2.6325 0.9473 18.7605 0.9473 20.0315 29.7363 3.4105"/>
            <polygon points="32.918 4.9641 32.309 4.6121 0.947 22.7191 0.947 23.9891 33.164 5.3901"/>
            <polygon points="36.3457 6.9435 35.7367 6.5905 0.9477 26.6765 0.9477 27.9475 36.5917 7.3685"/>
            <polygon points="39.7735 8.9221 39.1645 8.5701 0.9475 30.6351 0.9475 31.9051 40.0195 9.3481"/>
            <polygon points="43.2012 10.9016 42.5922 10.5486 0.9472 34.5926 0.9472 35.8646 43.4472 11.3266"/>
            <polygon points="46.6289 12.8801 46.0199 12.5281 0.9469 38.5511 0.9469 39.8211 46.8749 13.3061"/>
            <polygon points="50.0576 14.8596 49.4476 14.5066 0.9476 42.5086 0.9476 43.7806 50.3026 15.2846"/>
            <polygon points="53.4844 16.8381 52.8754 16.4861 0.9474 46.4671 0.9474 47.7371 53.7304 17.2641"/>
            <polygon points="56.9131 18.8176 56.3031 18.4646 0.9471 50.4246 0.9471 51.6966 57.1581 19.2426"/>
            <polygon points="60.3399 20.7961 59.7309 20.4441 0.9469 54.3831 0.9469 55.6531 60.5859 21.2221"/>
            <polygon points="63.7686 22.7756 63.1586 22.4226 0.9476 58.3396 0.9476 58.9286 1.5336 59.2736 64.0136 23.2006"/>
            <polygon points="45.7637 36.424 3.8357 60.63 4.9257 61.272 46.3147 37.377"/>
            <polygon points="7.7774 62.9514 8.3204 63.2704 25.3244 53.4544 25.3434 52.1714 7.5014 62.4724"/>
            <polygon points="67.3067 27.9445 32.3277 48.1385 33.4287 48.7745 67.3067 29.2155"/>
            <polygon points="67.3067 31.9016 35.7557 50.1186 36.8567 50.7536 67.3067 33.1726"/>
            <polygon points="11.2969 65.0246 11.7139 65.2696 25.2629 57.4476 25.2819 56.1656 10.9569 64.4356"/>
            <polygon points="67.3067 35.8596 39.1837 52.0966 40.2847 52.7326 67.3067 37.1306"/>
            <polygon points="14.8731 67.1301 15.1071 67.2681 25.2011 61.4411 25.2211 60.1581 14.4401 66.3821"/>
            <polygon points="67.3067 39.8176 42.6117 54.0766 43.7117 54.7116 67.3067 41.0886"/>
        </g>
    </g>
</svg>
